<svg id="SvgjsSvg1018" width="100%" height="100%" xmlns="http://www.w3.org/2000/svg" version="1.1" xmlns:xlink="http://www.w3.org/1999/xlink" xmlns:svgjs="http://svgjs.com/svgjs"><defs id="SvgjsDefs1019"></defs><g id="SvgjsG1020"><svg xmlns="http://www.w3.org/2000/svg" fill-rule="evenodd" stroke-linejoin="round" stroke-miterlimit="2" clip-rule="evenodd" viewBox="0 0 32 32" width="100%" height="100%"><path d="M16.024 1h-.048C7.708 1.013 1 7.73 1 16c0 8.279 6.721 15 15 15s15-6.721 15-15c0-8.27-6.708-14.987-14.976-15Zm-.958 22.033c-1.06.076-2.086.278-3.061.593.359 1.219.803 2.29 1.316 3.167.514.879 1.072 1.564 1.691 1.925l.054-5.685Zm2 .01-.054 5.661c.61-.365 1.16-1.044 1.667-1.911.513-.877.957-1.948 1.316-3.167-.935-.302-1.916-.5-2.929-.583Zm-6.913 1.345c-.881.445-1.704.987-2.456 1.612a12.975 12.975 0 0 0 4.242 2.352 9.955 9.955 0 0 1-.345-.55c-.554-.948-1.042-2.102-1.441-3.414Zm11.694 0c-.399 1.312-.887 2.466-1.441 3.414a9.955 9.955 0 0 1-.345.55A12.965 12.965 0 0 0 24.303 26a13.043 13.043 0 0 0-2.456-1.612ZM28.962 17h-5.977a30.434 30.434 0 0 1-.631 5.41 15.014 15.014 0 0 1 3.391 2.19 12.939 12.939 0 0 0 3.217-7.6ZM9.015 17H3.038a12.944 12.944 0 0 0 3.217 7.6 15.048 15.048 0 0 1 3.391-2.19A30.423 30.423 0 0 1 9.015 17Zm11.97 0h-3.862l-.038 4.039c1.17.083 2.304.302 3.385.639.285-1.438.463-3.016.515-4.678Zm-5.9 4.028L15.123 17h-4.108c.052 1.662.23 3.24.515 4.678a14.959 14.959 0 0 1 3.555-.65ZM6.255 7.4A12.939 12.939 0 0 0 3.038 15h5.977c.057-1.93.279-3.758.631-5.41A15.014 15.014 0 0 1 6.255 7.4Zm14.215 2.922a14.908 14.908 0 0 1-3.29.632L17.142 15h3.843a28.847 28.847 0 0 0-.515-4.678ZM25.745 7.4a15.048 15.048 0 0 1-3.391 2.19c.352 1.652.574 3.479.631 5.41h5.977a12.944 12.944 0 0 0-3.217-7.6ZM11.53 10.322A28.847 28.847 0 0 0 11.015 15h4.127l.038-4.022a14.96 14.96 0 0 1-3.65-.656Zm3.723-7.163c-.716.311-1.352 1.056-1.932 2.048-.513.877-.957 1.948-1.316 3.167 1.016.328 2.086.534 3.193.602l.055-5.817Zm1.998.298-.052 5.488a12.943 12.943 0 0 0 2.796-.571c-.359-1.219-.803-2.29-1.316-3.167-.44-.753-.913-1.364-1.428-1.75Zm2.81.191c.118.175.233.358.345.55.554.948 1.042 2.102 1.441 3.414A13.043 13.043 0 0 0 24.303 6a12.975 12.975 0 0 0-4.242-2.352Zm-8.122 0A12.965 12.965 0 0 0 7.697 6a13.043 13.043 0 0 0 2.456 1.612c.399-1.312.887-2.466 1.441-3.414.112-.192.227-.375.345-.55Z" fill="#ffffff" class="svgShape color000000-0 selectable"></path></svg></g></svg>